<svg width="93" height="94" viewBox="0 0 93 94" fill="none" xmlns="http://www.w3.org/2000/svg">
<path d="M47 38.4548V56.6356H72.2948C71.2031 62.5101 67.8927 67.487 62.9146 70.8199V82.6128H78.1055C86.9924 74.4307 92.1183 62.3824 92.1183 48.0691C92.1183 44.7362 91.8202 41.5311 91.2655 38.4548H47Z" fill="#3E82F1"/>
<path d="M4.99935 55.9295V68.1056C12.732 83.4667 28.6265 94 47 94C59.6894 94 70.3279 89.7895 78.1055 82.6128L62.9146 70.8199C58.7053 73.6407 53.3228 75.3071 46.9988 75.3071C34.7565 75.3071 24.3959 67.0388 20.7011 55.9295H4.99935Z" fill="#32A753"/>
<path d="M4.99935 25.8932C1.81666 32.2385 0 39.4153 0 47C0 54.5836 1.81666 61.7615 4.99935 68.1056L20.7023 55.9295C19.7608 53.1088 19.2274 50.0964 19.2274 47C19.2274 43.9025 19.7608 40.8901 20.7023 38.0705V25.8932H4.99935Z" fill="#F9BB00"/>
<path d="M4.99935 25.8932L20.7023 38.0705C24.3971 26.9612 34.7577 18.6928 47 18.6928C53.8988 18.6928 60.0962 21.0654 64.9655 25.7217L78.4472 12.2411C70.3066 4.65754 59.6669 0 47 0C28.6265 0 12.732 10.5333 4.99935 25.8932Z" fill="#E74133"/>
</svg>
