<svg width="103" height="103" viewBox="0 0 103 103" fill="none" xmlns="http://www.w3.org/2000/svg">
<path d="M94.4167 75.5634C91.0434 85.3484 80.9451 102.674 70.5421 102.863C63.6411 102.996 61.4223 98.7727 53.5343 98.7727C45.6505 98.7727 43.1828 102.734 36.6594 102.991C25.6213 103.416 8.58334 77.9839 8.58334 55.8045C8.58334 35.432 22.7802 25.3337 35.1831 25.1492C41.8352 25.029 48.1182 29.634 52.1738 29.634C56.2466 29.634 63.8772 24.0977 71.8983 24.9088C75.2544 25.0505 84.6832 26.2607 90.7344 35.1101C74.6793 45.5904 77.1813 67.5079 94.4167 75.5634ZM72.0056 0C59.8773 0.48925 49.9808 13.214 51.3627 23.7372C62.5725 24.6084 73.3274 12.0424 72.0056 0Z" fill="black"/>
</svg>
